<svg width="20" height="20" viewBox="0 0 20 20" fill="none" xmlns="http://www.w3.org/2000/svg">
<path d="M14.7952 11.6666C15.8302 11.6666 16.6692 12.5056 16.6692 13.5407V14.306C16.6692 14.7838 16.5199 15.2497 16.2421 15.6384C14.9538 17.4412 12.8503 18.3342 10 18.3342C7.14921 18.3342 5.04674 17.4408 3.76161 15.6371C3.48497 15.2489 3.3363 14.784 3.3363 14.3073V13.5407C3.3363 12.5056 4.17535 11.6666 5.21037 11.6666H14.7952ZM10 1.67052C12.3012 1.67052 14.1667 3.536 14.1667 5.83718C14.1667 8.13837 12.3012 10.0039 10 10.0039C7.69883 10.0039 5.83335 8.13837 5.83335 5.83718C5.83335 3.536 7.69883 1.67052 10 1.67052Z" fill="#00B8C2"/>
</svg>
